<?xml version="1.0" encoding="utf-8"?>
<!-- Generator: Adobe Illustrator 27.7.0, SVG Export Plug-In . SVG Version: 6.00 Build 0)  -->
<svg version="1.1" id="Layer_1" xmlns="http://www.w3.org/2000/svg" xmlns:xlink="http://www.w3.org/1999/xlink" x="0px" y="0px"
	 viewBox="0 0 512 512" style="enable-background:new 0 0 512 512;" xml:space="preserve">
<g>
	<path class="svg-path" d="M25.6,76.8h25.6c0.03-14.13,11.47-25.57,25.6-25.6h358.4c14.13,0.03,25.57,11.47,25.6,25.6v358.4
		c-0.03,14.13-11.47,25.57-25.6,25.6H76.8c-14.13-0.03-25.57-11.47-25.6-25.6V76.8H25.6H0v358.4c0.02,42.43,34.37,76.78,76.8,76.8
		h358.4c42.43-0.02,76.78-34.37,76.8-76.8V76.8C511.98,34.37,477.63,0.02,435.2,0H76.8C34.37,0.02,0.02,34.37,0,76.8H25.6z"/>
	<path class="svg-path" d="M204.8,179.2h76.8v128c-0.03,14.13-11.47,25.57-25.6,25.6c-14.13-0.03-25.57-11.47-25.6-25.6c0-14.14-11.46-25.6-25.6-25.6
		c-14.14,0-25.6,11.46-25.6,25.6c0.02,42.43,34.37,76.78,76.8,76.8c42.43-0.02,76.78-34.37,76.8-76.8V153.6
		c0-6.74-2.73-13.34-7.5-18.1c-4.77-4.77-11.36-7.5-18.1-7.5H204.8c-14.14,0-25.6,11.46-25.6,25.6
		C179.2,167.74,190.66,179.2,204.8,179.2z"/>
</g>
</svg>
