<?xml version="1.0" encoding="UTF-8" standalone="no"?>
<!-- Created with Inkscape (http://www.inkscape.org/) -->

<svg
   xmlns:dc="http://purl.org/dc/elements/1.1/"
   xmlns:cc="http://creativecommons.org/ns#"
   xmlns:rdf="http://www.w3.org/1999/02/22-rdf-syntax-ns#"
   xmlns:svg="http://www.w3.org/2000/svg"
   xmlns="http://www.w3.org/2000/svg"
   xmlns:sodipodi="http://sodipodi.sourceforge.net/DTD/sodipodi-0.dtd"
   xmlns:inkscape="http://www.inkscape.org/namespaces/inkscape"
   id="svg2"
   version="1.1"
   inkscape:version="0.47 r22583"
   width="903"
   height="368"
   sodipodi:docname="shonen jump.svg">
  <metadata
     id="metadata8">
    <rdf:RDF>
      <cc:Work
         rdf:about="">
        <dc:format>image/svg+xml</dc:format>
        <dc:type
           rdf:resource="http://purl.org/dc/dcmitype/StillImage" />
        <dc:title />
      </cc:Work>
    </rdf:RDF>
  </metadata>
  <defs
     id="defs6" />
  <sodipodi:namedview
     pagecolor="#ffffff"
     bordercolor="#666666"
     borderopacity="1"
     objecttolerance="10"
     gridtolerance="10"
     guidetolerance="10"
     inkscape:pageopacity="0"
     inkscape:pageshadow="2"
     inkscape:window-width="1280"
     inkscape:window-height="1002"
     id="namedview4"
     showgrid="false"
     inkscape:zoom="1"
     inkscape:cx="410.38884"
     inkscape:cy="199.94334"
     inkscape:window-x="-8"
     inkscape:window-y="-8"
     inkscape:window-maximized="1"
     inkscape:current-layer="svg2"
     inkscape:object-nodes="false" />
  <g
     id="layer1"
     inkscape:groupmode="layer"
     inkscape:label="ombre 0">
    <path
       id="path3691"
       d="M 819,29 794.75,54 647,54 l 0,104 142,0 0,54 -27,29 -70,0 0,-77 -110,0 0,59 -18,18 -75,0 11,-25 -41,-45 -91,0 -10,-40 -58,0 25,-26 0,-51 -158.3125,0 -9.53125,12 0,-12 L 13,54 l 0,85 7,5 -7,5 0,87 94,0 51,-52 0,-42 -45,0 44,-46 0,41 12,0 0,82 -21.40625,23 L 13,242 l 0,126 193,0 73,-75 0,-22 14,0 18,97 96,0 -11,-52 70,0 0,52 152,0 63,-68 0,68 133,0 78.53125,-76.4375 L 894.5625,96.75 903,88 l 0,-59 -84,0 z m -352,25 0,100 109,0 53,-53 0,-47 -162,0 z"
       style="fill:#000000;fill-opacity:1;stroke:none" />
    <path
       id="path3705"
       d="M 811,5 786.75,30 639,30 l 0,104 142,0 0,54 -27,29 -70,0 0,-77 -110,0 0,59 -18,18 -75,0 11,-25 -41,-45 -91,0 -10,-40 -58,0 25,-26 0,-51 -158.3125,0 -9.53125,12 0,-12 L 5,30 l 0,85 7,5 -7,5 0,87 94,0 51,-52 0,-42 -45,0 44,-46 0,41 12,0 0,82 -21.40625,23 L 5,218 l 0,126 193,0 73,-75 0,-22 14,0 18,97 96,0 -11,-52 70,0 0,52 152,0 63,-68 0,68 133,0 78.53125,-76.4375 L 886.5625,72.75 895,64 895,5 811,5 z m -352,25 0,100 109,0 53,-53 0,-47 -162,0 z"
       style="fill:none;stroke:#000000;stroke-width:10;stroke-miterlimit:4;stroke-opacity:1;stroke-dasharray:none" />
  </g>
  <g
     id="layer2"
     inkscape:groupmode="layer"
     inkscape:label="contour 1">
    <path
       id="path3683"
       d="M 639,30 887.015,30 884.54031,267.56347 806,344 l -133,0 0,-68 -63,68 -152,0 0,-52 -70,0 11,52 -96,0 -18,-97 -14,0 0,22 -73,75 -193,0 0,-126 134.603,0 21.397,-23 0,-82 -12,0 0,-41 -44,46 45,0 0,42 -51,52 -94,0 0,-87 7,-5 -7,-5 0,-85 144.14927,0 0,11.996405 L 158.695,30 317,30 l 0,51 -25,26 58,0 10,40 91,0 41,45 -11,25 75,0 18,-18 0,-59 110,0 0,77 70,0 27,-29 0,-54 -142,0 0,-104 z"
       style="fill:#fea429;fill-opacity:1;stroke:#000000;stroke-width:2;stroke-linecap:butt;stroke-linejoin:miter;stroke-miterlimit:4;stroke-opacity:1;stroke-dasharray:none" />
    <path
       style="fill:#fea429;fill-opacity:1;stroke:#000000;stroke-width:2;stroke-linecap:butt;stroke-linejoin:miter;stroke-miterlimit:4;stroke-opacity:1;stroke-dasharray:none"
       d="m 568,130 53,-53 0,-47 -162,0 0,100 109,0 z"
       id="path3688" />
  </g>
  <g
     id="layer3"
     inkscape:groupmode="layer"
     inkscape:label="ombre 1">
    <path
       id="path3598"
       d="m 15,206 0,-77 129,0 0,19 -84,0 -11,12 92,0 -46,46 -80,0 z"
       style="fill:#000000;fill-opacity:1;stroke:none" />
    <path
       id="path3594"
       d="m 15,118 0,-77 129,0 0,25 -88,0 -10,12 89,0 -40,40 -80,0 z"
       style="fill:#000000;fill-opacity:1;stroke:none" />
    <path
       style="fill:#000000;fill-opacity:1;stroke:none"
       d="m 160,105 0,-64 77,0 0,25 -61,0 -10,12 71,0 0,27 -77,0 z"
       id="path3602" />
    <path
       id="path3606"
       d="m 248,105 0,-64 60,0 0,25 -44,0 -10,12 52,0 -26,27 -32,0 z"
       style="fill:#000000;fill-opacity:1;stroke:none" />
    <path
       style="fill:#000000;fill-opacity:1;stroke:none"
       d="m 261,138 0,-22 -90,0 0,90 -23,23 -133,0 0,108 178,0 68,-70 0,-118 -56,0 0,76 -46,46 -134,0 9,-9 119,0 40,-42 0,-82 68,0 z"
       id="path3620" />
    <path
       style="fill:#000000;fill-opacity:1;stroke:none"
       d="m 269,116 9.15625,45 -9.15625,0 0,41 17.5,0 2.46875,12 -19.96875,0 0,25 25.03125,0 19.96875,98 28,0 -45,-221 -28,0 z"
       id="path2839" />
    <path
       style="fill:#000000;fill-opacity:1;stroke:none"
       d="m 303,116 45,221 36,0 -20.5625,-101 19.5625,0 10,-27 -35.0625,0 -2.25,-11 67.3125,0 -7,11 -13,0 -27,76 64,0 35,-87 -35,-41 -92.65625,0 L 339,116 l -36,0 z"
       id="path3621" />
    <path
       id="path3643"
       d="m 674,168 0,-15 -89,0 0,53 -23,23 -93,0 0,108 136,0 69,-72 0,-86 -43,0 0,38 -53,54 -99,0 9,-9 84,0 49,-50 0,-44 53,0 z"
       style="fill:#000000;fill-opacity:1;stroke:none" />
    <path
       id="path3651"
       d="m 467,123 0,-82 147,0 0,25 -126,0 -10,12 132,0 -45,45 -98,0 z"
       style="fill:#000000;fill-opacity:1;stroke:none" />
    <path
       id="path3660"
       d="m 649,41 0,85 144,0 0,71 -30,31 -79,0 0,42 82,0 50,-51 0,-142 -160,0 12,-12 159,0 0,160 -58,58 -85,0 0,53 118,0 75,-71 0,-224 -228,0 z"
       style="fill:#000000;fill-opacity:1;stroke:none" />
  </g>
  <g
     id="layer4"
     inkscape:groupmode="layer"
     inkscape:label="écriture 1">
    <path
       id="path2818"
       d="m 13,114 0,-77 129,0 0,25 -88,0 -10,12 89,0 -40,40 -80,0 z"
       style="fill:#ffff01;fill-opacity:1;stroke:#000000;stroke-width:2;stroke-linecap:butt;stroke-linejoin:miter;stroke-miterlimit:4;stroke-opacity:1;stroke-dasharray:none" />
    <path
       id="path3596"
       d="m 13,200 0,-77 129,0 0,19 -84,0 -11,12 92,0 -46,46 -80,0 z"
       style="fill:#ffff01;fill-opacity:1;stroke:#000000;stroke-width:2;stroke-linecap:butt;stroke-linejoin:miter;stroke-miterlimit:4;stroke-opacity:1;stroke-dasharray:none" />
    <path
       id="path3600"
       d="m 158,101 0,-64 77,0 0,25 -61,0 -10,12 71,0 0,27 -77,0 z"
       style="fill:#ffff01;fill-opacity:1;stroke:#000000;stroke-width:2;stroke-linecap:butt;stroke-linejoin:miter;stroke-miterlimit:4;stroke-opacity:1;stroke-dasharray:none" />
    <path
       style="fill:#ffff01;fill-opacity:1;stroke:#000000;stroke-width:2;stroke-linecap:butt;stroke-linejoin:miter;stroke-miterlimit:4;stroke-opacity:1;stroke-dasharray:none"
       d="m 246,101 0,-64 60,0 0,25 -44,0 -10,12 52,0 -26,27 -32,0 z"
       id="path3604" />
    <path
       id="path3597"
       d="m 259,134 0,-22 -90,0 0,90 -23,23 -133,0 0,108 178,0 68,-70 0,-118 -56,0 0,76 -46,46 -134,0 9,-9 119,0 40,-42 0,-82 68,0 z"
       style="fill:#ffff01;fill-opacity:1;stroke:#000000;stroke-width:2;stroke-linecap:butt;stroke-linejoin:miter;stroke-miterlimit:4;stroke-opacity:1;stroke-dasharray:none" />
    <path
       id="path3633"
       d="m 267,112 9.15625,45 -9.15625,0 0,41 17.5,0 2.46875,12 -19.96875,0 0,25 25.03125,0 19.96875,98 28,0 -45,-221 -28,0 z"
       style="fill:#ffff01;fill-opacity:1;stroke:#000000;stroke-width:2;stroke-linecap:butt;stroke-linejoin:miter;stroke-miterlimit:4;stroke-opacity:1;stroke-dasharray:none" />
    <path
       id="path3635"
       d="m 301,112 45,221 36,0 -20.5625,-101 19.5625,0 10,-27 -35.0625,0 -2.25,-11 67.3125,0 -7,11 -13,0 -27,76 64,0 35,-87 -35,-41 -92.65625,0 L 337,112 l -36,0 z"
       style="fill:#ffff01;fill-opacity:1;stroke:#000000;stroke-width:2;stroke-linecap:butt;stroke-linejoin:miter;stroke-miterlimit:4;stroke-opacity:1;stroke-dasharray:none" />
    <path
       style="fill:#ffff01;fill-opacity:1;stroke:#000000;stroke-width:2;stroke-linecap:butt;stroke-linejoin:miter;stroke-miterlimit:4;stroke-opacity:1;stroke-dasharray:none"
       d="m 672,164 0,-15 -89,0 0,53 -23,23 -93,0 0,108 136,0 69,-72 0,-86 -43,0 0,38 -53,54 -99,0 9,-9 84,0 49,-50 0,-44 53,0 z"
       id="path3641" />
    <path
       style="fill:#ffff01;fill-opacity:1;stroke:#000000;stroke-width:2;stroke-linecap:butt;stroke-linejoin:miter;stroke-miterlimit:4;stroke-opacity:1;stroke-dasharray:none"
       d="m 465,119 0,-82 147,0 0,25 -126,0 -10,12 132,0 -45,45 -98,0 z"
       id="path3649" />
    <path
       style="fill:#ffff01;fill-opacity:1;stroke:#000000;stroke-width:2;stroke-linecap:butt;stroke-linejoin:miter;stroke-miterlimit:4;stroke-opacity:1;stroke-dasharray:none"
       d="m 647,37 0,85 144,0 0,71 -30,31 -79,0 0,42 82,0 50,-51 0,-142 -160,0 12,-12 159,0 0,160 -58,58 -85,0 0,53 118,0 75,-71 0,-224 -228,0 z"
       id="path3655" />
  </g>
  <g
     id="layer5"
     inkscape:groupmode="layer"
     inkscape:label="contour 2">
    <path
       id="path3670"
       d="m 779,92 0,-54 32,-33 84,0 0,59 -27,28 -89,0 z"
       style="fill:#fea429;fill-opacity:1;stroke:#000000;stroke-width:2;stroke-linecap:butt;stroke-linejoin:miter;stroke-miterlimit:4;stroke-opacity:1;stroke-dasharray:none" />
  </g>
  <g
     id="layer+"
     inkscape:groupmode="layer"
     inkscape:label="ombre 2">
    <path
       style="fill:#000000;fill-opacity:1;stroke:none"
       d="m 815,17 -24,24 0,44 76,0 23,-24 0,-44 -75,0 z m 15,23 29,0.09375 0,13.90625 -8,7 -29,0 0,-13 8,-8 z"
       id="path3672" />
  </g>
  <g
     id="layer7"
     inkscape:groupmode="layer"
     inkscape:label="écriture 2">
    <path
       id="path3664"
       d="m 813,13 -24,24 0,44 76,0 23,-24 0,-44 -75,0 z m 15,23 29,0.09375 0,13.90625 -8,7 -29,0 0,-13 8,-8 z"
       style="fill:#ffff01;fill-opacity:1;stroke:#000000;stroke-width:2;stroke-linecap:butt;stroke-linejoin:miter;stroke-miterlimit:4;stroke-opacity:1;stroke-dasharray:none" />
  </g>
  <g
     id="layer8"
     inkscape:groupmode="layer"
     inkscape:label="contour 3">
    <path
       id="path3765"
       d="m 255,105.5 0,10 6.5,31 144.5,0 0,-15.5 9.5,-18.5 0,-7 -160.5,0 z"
       style="fill:#000000;fill-opacity:1;stroke:none" />
    <path
       id="path3783"
       d="m 410,122 13,0 0,-16.5 c 0,0 62.39433,0 93,0 7.80818,0 11,5.74655 11,8 l 0,14 c 0,2.3746 -3.26136,8 -11,8 l -2.5,0 0,11 -92.5,0 c -7.77665,-0.10232 -11.01861,-3.84043 -11,-8 l 0,-16.5 z"
       style="fill:#000000;fill-opacity:1;stroke:none" />
  </g>
  <g
     id="layer9"
     inkscape:groupmode="layer"
     inkscape:label="écriture 3">
    <path
       id="path3723"
       d="m 259,108 4,28 13,0 3,-20 3,20 13,0 4,-28 -9.5,0 -2,21 -2,-21 -13,0 -2,21 -2,-21 -9.5,0 z"
       style="fill:#69e503;fill-opacity:1;stroke:none" />
    <path
       id="path3725"
       d="m 319,108 0,5.5 -9,0 0,6 7.5,0 0,5 -7.5,0 0,6 9,0.1 0,5.4 -18.5,0 0,-28 18.5,0 z"
       style="fill:#69e503;fill-opacity:1;stroke:none" />
    <path
       style="fill:#69e503;fill-opacity:1;stroke:none"
       d="m 340.5,108 0,5.5 -9,0 0,6 7.5,0 0,5 -7.5,0 0,6 9,0.1 0,5.4 -18.5,0 0,-28 18.5,0 z"
       id="path3727" />
    <path
       id="path3731"
       d="m 343.5,108 0,28 9.5,0 0,-11.4375 5,11.4375 10.5,0 -7.5,-16.5 7,-11.5 -10.5,0 -4.5,8.3125 0,-8.3125 -9.5,0 z"
       style="fill:#69e503;fill-opacity:1;stroke:none" />
    <path
       id="path3729"
       d="m 379.5,108 0,22.5 9,0.1 0,5.4 -18.5,0 0,-28 9.5,0 z"
       style="fill:#69e503;fill-opacity:1;stroke:none" />
    <path
       style="fill:#69e503;fill-opacity:1;stroke:none"
       d="m 385,108 9.5,0 3,9.834 3,-9.834 9.5,0 -7.5,17 0,11 -10,0 0,-11.00694 L 385,108 z"
       id="path3743" />
    <path
       style="fill:#69e503;fill-opacity:1;stroke:none"
       d="m 413.5,124.5 10,0 -0.082,5 c -0.0429,2.615 3.082,2.53376 3.082,0 l -10e-6,-21.5 10,0 10e-6,21.5 c 0,8.69314 -23,8.73705 -23,0 l 0,-5 z"
       id="path3767" />
    <path
       id="path3769"
       d="m 438.5,108 10,0 -0.082,21.5 c -0.01,2.61533 3.082,2.53376 3.082,0 l -10e-6,-21.5 10,0 10e-6,21.5 c 0,8.69314 -23,8.73705 -23,0 l 0,-21.5 z"
       style="fill:#69e503;fill-opacity:1;stroke:none" />
    <path
       style="fill:#69e503;fill-opacity:1;stroke:none"
       d="m 464,136 0,-28 14,0 3,14 3,-14 14,0 0,28 -8.5,0 0,-21 -5,21 -7,0 -5,-21 0,21 -8.5,0 z"
       id="path3771" />
    <path
       style="fill:#69e503;fill-opacity:1;stroke:none"
       d="m 500.5,108 0,28 9.5,0 0,-11 6,0 c 3.43005,0 7.5,-3.16711 7.5,-6 l 0,-5 c 0,-2.60769 -3.41316,-6 -7.5,-6 l -15.5,0 z m 9.5,4.5 c 5.02164,0.004 4.98342,7.95801 0,8 l 0,-8 z"
       id="path3777" />
  </g>
  <g
     id="layer10"
     inkscape:groupmode="layer"
     inkscape:label="contour 4">
    <path
       style="font-size:medium;font-style:normal;font-variant:normal;font-weight:normal;font-stretch:normal;text-indent:0;text-align:start;text-decoration:none;line-height:normal;letter-spacing:normal;word-spacing:normal;text-transform:none;direction:ltr;block-progression:tb;writing-mode:lr-tb;text-anchor:start;color:#000000;fill:#000000;fill-opacity:1;fill-rule:nonzero;stroke:none;stroke-width:8;marker:none;visibility:visible;display:inline;overflow:visible;enable-background:accumulate;font-family:Bitstream Vera Sans;-inkscape-font-specification:Bitstream Vera Sans"
       d="m 341.5,20 0,8.46875 -15.59375,-5.8125 c 0.95586,17.914194 -4.58535,29.331314 -15.125,35.75 L 329,72.53125 c -3.80154,0.788415 -7.42126,0.485913 -11.0625,0.3125 l 9.9375,31.53125 c 21.82925,0.48496 39.54949,-9.71345 54.71875,-24.375 l 0,8.8125 28.90625,0 0,13.875 29.3125,0 0,-13.875 19.28125,0 0,-29.625 -3.09375,0 0,-6.5 1.1875,0 0,-28.28125 -30.8125,0 1.59375,-4.40625 -32.9375,0 c -1.28794,5.639442 -4.00035,10.539728 -7.71875,14.9375 -2.70927,-4.041293 -4.09956,-8.610177 -5.15625,-13.3125 L 370.5,26.9375 370.5,20 l -29,0 z"
       id="path3710" />
    <path
       id="path3747"
       d="m 345.5,24 0,10.21875 -15.46875,-5.75 C 330.22932,38.414614 325,54 317.6875,58.71875 l 18.96875,14.6875 2.84375,-4.4375 0,3.71875 5.53125,0 c -6.14946,2.49272 -13.39174,4.072076 -21.65625,4.125 l 7.40625,23.46875 C 357.06308,99.429585 375.6489,84.944091 386.59375,68.5 l 0,16.3125 28.90625,0 0,13.875 21.3125,0 0,-13.875 19.28125,0 0,-21.625 -3.09375,0 0,-14.5 1.1875,0 0,-20.28125 -33.0625,0 c 0.7873,-1.269019 1.53507,-2.680424 2.15625,-4.40625 l -24.25,0 c -1.93296,6.664052 -5.80434,12.466591 -11.6875,17.375 -2.75923,-4.315078 -5.0981,-9.003947 -6.71875,-14.34375 L 366.5,32.9375 366.5,24 l -21,0 z m 47.25,33.40625 2.75,3.625 0,2.15625 -5.6875,0 c 1.07416,-1.927831 2.06643,-3.852472 2.9375,-5.78125 z"
       style="font-size:medium;font-style:normal;font-variant:normal;font-weight:normal;font-stretch:normal;text-indent:0;text-align:start;text-decoration:none;line-height:normal;letter-spacing:normal;word-spacing:normal;text-transform:none;direction:ltr;block-progression:tb;writing-mode:lr-tb;text-anchor:start;color:#000000;fill:#ffffff;fill-opacity:1;fill-rule:nonzero;stroke:none;stroke-width:10;marker:none;visibility:visible;display:inline;overflow:visible;enable-background:accumulate;font-family:Bitstream Vera Sans;-inkscape-font-specification:Bitstream Vera Sans" />
  </g>
  <g
     id="layer11"
     inkscape:groupmode="layer"
     inkscape:label="ombre 4">
    <path
       style="fill:#000000;fill-opacity:1;stroke:none"
       d="m 403.49375,30.4 c -1.9698,5.655202 -7.32603,12.253008 -12.6875,16.5 l 7.28125,9.5 c 1.12323,-0.862823 2.22822,-1.825246 3.3125,-2.84375 l 0,16.03125 -8.90625,0 0,11.625 28.90625,0 0,13.875 11.3125,0 0,-13.875 19.28125,0 0,-11.625 -19.28125,0 0,-8.28125 16.1875,0 0,-10.40625 -16.1875,0 0,-5.8125 17.375,0 0,-10.28125 -36.46875,0 c 0.47905,-1.447749 0.89502,-2.912819 1.1875,-4.40625 l -11.3125,0 z m 5.09375,14.6875 12.8125,0 0,5.8125 -17.375,0 c 1.63047,-1.792383 3.17989,-3.727436 4.5625,-5.8125 z m 2.90625,16.21875 9.90625,0 0,8.28125 -9.90625,0 0,-8.28125 z"
       id="path3695" />
    <path
       id="path3697"
       d="m 377.5,35.6 c 2.38632,7.088458 5.99543,14.627701 11.4,20.6 L 381,64.3 C 373.98447,57.525772 370.17812,49.788926 367.6,39.7 l 9.9,-4.1 z"
       style="fill:#000000;fill-opacity:1;stroke:none" />
    <path
       id="path3699"
       d="m 331,82.8 c 15.06,-0.922682 30.66981,-8.030404 39.4,-23 l 9.6,7.8 c -10.89194,17.462129 -22.58675,24.037004 -45,27.6 l -4,-12.4 z"
       style="fill:#000000;fill-opacity:1;stroke:none" />
    <path
       id="path3701"
       d="m 325.7,59.3 10.6,8.2 c 4.66348,-7.269886 9.54232,-18.153543 10,-26.6 l -10.8,-4 c -0.45236,7.383475 -5.44894,17.071619 -9.8,22.4 z"
       style="fill:#000000;fill-opacity:1;stroke:none" />
    <path
       id="path3703"
       d="m 362.4,30.4 0,32.7 c 0,2.818722 -3.49349,6 -6,6 l -11,0 0,-11.2 3.5,0 c 2.0517,0 2.5,-0.525815 2.5,-2.5 l 0,-25 11,0 z"
       style="fill:#000000;fill-opacity:1;stroke:none" />
  </g>
  <g
     id="layer12"
     inkscape:groupmode="layer"
     inkscape:label="écriture 4">
    <path
       style="fill:#fa6230;fill-opacity:1;stroke:none"
       d="m 402.59375,29 c -1.9698,5.655202 -7.32603,12.253008 -12.6875,16.5 l 7.28125,9.5 c 1.12323,-0.862823 2.22822,-1.825246 3.3125,-2.84375 l 0,16.03125 -8.90625,0 0,11.625 28.90625,0 0,13.875 11.3125,0 0,-13.875 19.28125,0 0,-11.625 -19.28125,0 0,-8.28125 16.1875,0 0,-10.40625 -16.1875,0 0,-5.8125 17.375,0 0,-10.28125 -36.46875,0 c 0.47905,-1.447749 0.89502,-2.912819 1.1875,-4.40625 l -11.3125,0 z m 5.09375,14.6875 12.8125,0 0,5.8125 -17.375,0 c 1.63047,-1.792383 3.17989,-3.727436 4.5625,-5.8125 z m 2.90625,16.21875 9.90625,0 0,8.28125 -9.90625,0 0,-8.28125 z"
       id="path3671" />
    <path
       id="path3673"
       d="m 376.6,34.2 c 2.38632,7.088458 5.99543,14.627701 11.4,20.6 l -7.9,8.1 C 373.08447,56.125772 369.27812,48.388926 366.7,38.3 l 9.9,-4.1 z"
       style="fill:#fa6230;fill-opacity:1;stroke:none" />
    <path
       id="path3675"
       d="m 330.1,81.4 c 15.06,-0.922682 30.66981,-8.030404 39.4,-23 l 9.6,7.8 c -10.89194,17.462129 -22.58675,24.037004 -45,27.6 l -4,-12.4 z"
       style="fill:#fa6230;fill-opacity:1;stroke:none" />
    <path
       id="path3677"
       d="m 324.8,57.9 10.6,8.2 c 4.66348,-7.269886 9.54232,-18.153543 10,-26.6 l -10.8,-4 c -0.45236,7.383475 -5.44894,17.071619 -9.8,22.4 z"
       style="fill:#fa6230;fill-opacity:1;stroke:none" />
    <path
       id="path3679"
       d="m 361.5,29 0,32.7 c 0,2.818722 -3.49349,6 -6,6 l -11,0 0,-11.2 3.5,0 c 2.0517,0 2.5,-0.525815 2.5,-2.5 l 0,-25 11,0 z"
       style="fill:#fa6230;fill-opacity:1;stroke:none" />
  </g>
  <g
     id="layer13"
     inkscape:groupmode="layer"
     inkscape:label="écriture 5">
    <path
       id="path3781"
       d="m 36,59.5 3,6.5 4.5,0 -3,-6.5 -4.5,0 z m 8.5,0 0,21.3125 c 0,0.778481 -0.517388,1.006146 -1.5,1.25 l 2,1.75 C 46.461154,83.7654 49,82.63228 49,81 l 0,-18.5 12.5,0 0,17.5 c 0,1.2909 -0.194536,1.5 -0.6875,1.5 l -1.3125,0 0,2.5 3.5,0 c 2.050354,0 3,-1.060626 3,-3 l 0,-21.5 -21.5,0 z m 27.5,0 0,4.5 5,0 0,7.5 -5,0 0,4.5 5,0 0,13 4.5,0 0,-13 5,0 0,-4.5 -5,0 0,-7.5 5,0 0,-4.5 -14.5,0 z m 17.5,0 0,23 4.5,0 0,-23 -4.5,0 z m 7,0 0,24 c 0,0.698723 -0.14501,1 -1,1 l -4.5,0 0,4.5 6.5,0 c 1.97603,0 3.5,-1.599789 3.5,-3.5 l 0,-26 -4.5,0 z M 54,62.8125 54,65 l -4,0 0,2.5 4,0 0,2.5 -4,0 0,2.5 10.5,0 0,-2.5 -4,0 0,-2.5 4,0 0,-2.5 -4,0 0,-2.1875 -2.5,0 z M 36,68 l 0,4.5 2,0 0,12 -2,0 0,4.5 3.6875,0 c 1.224201,0.0037 2.32431,-0.970651 2.3125,-2 0.02486,1.014537 1.009632,1.98437 2.3125,2 l 22.1875,0 0,-4.5 -21.71875,0 C 43.615918,84.5 42.5,84.533457 42.5,82.8125 L 42.5,68 36,68 z m 14,5.5 0,9 2.5,0 0,-1.5 8,0 0,-7.5 -10.5,0 z m 2.5,2.5 5.5,0 0,2.5 -5.5,0 0,-2.5 z"
       style="font-size:34px;font-variant:normal;font-stretch:normal;text-align:start;line-height:125%;writing-mode:lr-tb;text-anchor:start;fill:#fa6230;fill-opacity:1;stroke:#ffff01;stroke-opacity:1;font-family:MS Gothic;-inkscape-font-specification:MS Gothic" />
  </g>
</svg>
