<?xml version="1.0" encoding="UTF-8"?>
<svg xmlns="http://www.w3.org/2000/svg" xmlns:xlink="http://www.w3.org/1999/xlink" width="90px" height="37px" viewBox="0 0 90 37" version="1.1">
<g id="surface1">
<path style=" stroke:none;fill-rule:nonzero;fill:rgb(0%,0%,0%);fill-opacity:1;" d="M 81.628906 2.914062 L 79.210938 5.429688 L 64.484375 5.429688 L 64.484375 15.886719 L 78.636719 15.886719 L 78.636719 21.316406 L 75.945312 24.230469 L 68.96875 24.230469 L 68.96875 16.488281 L 58.007812 16.488281 L 58.007812 22.421875 L 56.210938 24.230469 L 48.738281 24.230469 L 49.832031 21.71875 L 45.746094 17.191406 L 36.679688 17.191406 L 35.679688 13.171875 L 29.898438 13.171875 L 32.390625 10.558594 L 32.390625 5.429688 L 16.613281 5.429688 L 15.664062 6.636719 L 15.664062 5.429688 L 1.296875 5.429688 L 1.296875 13.976562 L 1.992188 14.476562 L 1.296875 14.980469 L 1.296875 23.726562 L 10.664062 23.726562 L 15.746094 18.5 L 15.746094 14.277344 L 11.261719 14.277344 L 15.648438 9.652344 L 15.648438 13.773438 L 16.84375 13.773438 L 16.84375 22.019531 L 14.710938 24.332031 L 1.296875 24.332031 L 1.296875 37 L 20.53125 37 L 27.808594 29.460938 L 27.808594 27.246094 L 29.203125 27.246094 L 30.996094 37 L 40.566406 37 L 39.46875 31.773438 L 46.445312 31.773438 L 46.445312 37 L 61.59375 37 L 67.875 30.164062 L 67.875 37 L 81.128906 37 L 88.957031 29.316406 L 89.160156 9.726562 L 90 8.847656 L 90 2.914062 Z M 46.542969 5.429688 L 46.542969 15.484375 L 57.410156 15.484375 L 62.691406 10.15625 L 62.691406 5.429688 Z M 46.542969 5.429688 "/>
<path style="fill:none;stroke-width:10;stroke-linecap:butt;stroke-linejoin:miter;stroke:rgb(0%,0%,0%);stroke-opacity:1;stroke-miterlimit:4;" d="M 811.014714 5.011824 L 786.754427 29.993243 L 638.997917 29.993243 L 638.997917 133.998311 L 780.993099 133.998311 L 780.993099 188.001689 L 753.989323 216.984797 L 683.991146 216.984797 L 683.991146 139.981419 L 574.016406 139.981419 L 574.016406 198.996622 L 555.98776 216.984797 L 481.012109 216.984797 L 491.986068 192.003378 L 450.990495 147.013514 L 359.985026 147.013514 L 349.990885 106.996622 L 291.985677 106.996622 L 316.990625 81.005068 L 316.990625 29.993243 L 158.691276 29.993243 L 149.167448 41.998311 L 149.167448 29.993243 L 5.016667 29.993243 L 5.016667 115 L 11.992969 120.011824 L 5.016667 124.984797 L 5.016667 212.011824 L 99.000781 212.011824 L 149.990495 159.989865 L 149.990495 117.991554 L 104.997266 117.991554 L 149.010677 71.991554 L 149.010677 113.018581 L 161.003646 113.018581 L 161.003646 194.994932 L 139.604427 217.994932 L 5.016667 217.994932 L 5.016667 343.989865 L 198.001563 343.989865 L 271.017578 269.006757 L 271.017578 247.016892 L 285.009375 247.016892 L 302.998828 343.989865 L 398.981771 343.989865 L 388.007812 292.006757 L 458.00599 292.006757 L 458.00599 343.989865 L 609.995312 343.989865 L 673.017187 276 L 673.017187 343.989865 L 805.998047 343.989865 L 884.540234 267.569257 L 886.578255 72.768581 L 895.004688 63.988176 L 895.004688 5.011824 Z M 458.985807 29.993243 L 458.985807 129.996622 L 567.980729 129.996622 L 621.008464 77.003378 L 621.008464 29.993243 Z M 458.985807 29.993243 " transform="matrix(0.0996678,0,0,0.100543,0,0)"/>
<path style="fill-rule:nonzero;fill:rgb(99.607843%,64.313728%,16.078432%);fill-opacity:1;stroke-width:2;stroke-linecap:butt;stroke-linejoin:miter;stroke:rgb(0%,0%,0%);stroke-opacity:1;stroke-miterlimit:4;" d="M 638.997917 29.993243 L 887.009375 29.993243 L 884.540234 267.569257 L 805.998047 343.989865 L 673.017187 343.989865 L 673.017187 276 L 609.995312 343.989865 L 458.00599 343.989865 L 458.00599 292.006757 L 388.007812 292.006757 L 398.981771 343.989865 L 302.998828 343.989865 L 285.009375 247.016892 L 271.017578 247.016892 L 271.017578 269.006757 L 198.001563 343.989865 L 5.016667 343.989865 L 5.016667 217.994932 L 139.604427 217.994932 L 161.003646 194.994932 L 161.003646 113.018581 L 149.010677 113.018581 L 149.010677 71.991554 L 104.997266 117.991554 L 149.990495 117.991554 L 149.990495 159.989865 L 99.000781 212.011824 L 5.016667 212.011824 L 5.016667 124.984797 L 11.992969 120.011824 L 5.016667 115 L 5.016667 29.993243 L 149.167448 29.993243 L 149.167448 41.998311 L 158.691276 29.993243 L 316.990625 29.993243 L 316.990625 81.005068 L 291.985677 106.996622 L 349.990885 106.996622 L 359.985026 147.013514 L 450.990495 147.013514 L 491.986068 192.003378 L 481.012109 216.984797 L 555.98776 216.984797 L 574.016406 198.996622 L 574.016406 139.981419 L 683.991146 139.981419 L 683.991146 216.984797 L 753.989323 216.984797 L 780.993099 188.001689 L 780.993099 133.998311 L 638.997917 133.998311 Z M 638.997917 29.993243 " transform="matrix(0.0996678,0,0,0.100543,0,0)"/>
<path style="fill-rule:nonzero;fill:rgb(99.607843%,64.313728%,16.078432%);fill-opacity:1;stroke-width:2;stroke-linecap:butt;stroke-linejoin:miter;stroke:rgb(0%,0%,0%);stroke-opacity:1;stroke-miterlimit:4;" d="M 567.980729 129.996622 L 621.008464 77.003378 L 621.008464 29.993243 L 458.985807 29.993243 L 458.985807 129.996622 Z M 567.980729 129.996622 " transform="matrix(0.0996678,0,0,0.100543,0,0)"/>
<path style=" stroke:none;fill-rule:nonzero;fill:rgb(0%,0%,0%);fill-opacity:1;" d="M 1.496094 20.710938 L 1.496094 12.96875 L 14.351562 12.96875 L 14.351562 14.878906 L 5.980469 14.878906 L 4.882812 16.085938 L 14.054688 16.085938 L 9.46875 20.710938 Z M 1.496094 20.710938 "/>
<path style=" stroke:none;fill-rule:nonzero;fill:rgb(0%,0%,0%);fill-opacity:1;" d="M 1.496094 11.863281 L 1.496094 4.121094 L 14.351562 4.121094 L 14.351562 6.636719 L 5.582031 6.636719 L 4.585938 7.84375 L 13.457031 7.84375 L 9.46875 11.863281 Z M 1.496094 11.863281 "/>
<path style=" stroke:none;fill-rule:nonzero;fill:rgb(0%,0%,0%);fill-opacity:1;" d="M 15.945312 10.558594 L 15.945312 4.121094 L 23.621094 4.121094 L 23.621094 6.636719 L 17.542969 6.636719 L 16.542969 7.84375 L 23.621094 7.84375 L 23.621094 10.558594 Z M 15.945312 10.558594 "/>
<path style=" stroke:none;fill-rule:nonzero;fill:rgb(0%,0%,0%);fill-opacity:1;" d="M 24.71875 10.558594 L 24.71875 4.121094 L 30.699219 4.121094 L 30.699219 6.636719 L 26.3125 6.636719 L 25.316406 7.84375 L 30.5 7.84375 L 27.90625 10.558594 Z M 24.71875 10.558594 "/>
<path style=" stroke:none;fill-rule:nonzero;fill:rgb(0%,0%,0%);fill-opacity:1;" d="M 26.011719 13.875 L 26.011719 11.664062 L 17.042969 11.664062 L 17.042969 20.710938 L 14.75 23.023438 L 1.496094 23.023438 L 1.496094 33.882812 L 19.234375 33.882812 L 26.011719 26.84375 L 26.011719 14.980469 L 20.433594 14.980469 L 20.433594 22.621094 L 15.847656 27.246094 L 2.492188 27.246094 L 3.390625 26.34375 L 15.25 26.34375 L 19.234375 22.121094 L 19.234375 13.875 Z M 26.011719 13.875 "/>
<path style=" stroke:none;fill-rule:nonzero;fill:rgb(0%,0%,0%);fill-opacity:1;" d="M 26.8125 11.664062 L 27.722656 16.1875 L 26.8125 16.1875 L 26.8125 20.308594 L 28.554688 20.308594 L 28.800781 21.515625 L 26.8125 21.515625 L 26.8125 24.03125 L 29.304688 24.03125 L 31.296875 33.882812 L 34.085938 33.882812 L 29.601562 11.664062 Z M 26.8125 11.664062 "/>
<path style=" stroke:none;fill-rule:nonzero;fill:rgb(0%,0%,0%);fill-opacity:1;" d="M 30.199219 11.664062 L 34.683594 33.882812 L 38.273438 33.882812 L 36.222656 23.726562 L 38.171875 23.726562 L 39.167969 21.011719 L 35.675781 21.011719 L 35.449219 19.90625 L 42.160156 19.90625 L 41.460938 21.011719 L 40.167969 21.011719 L 37.476562 28.65625 L 43.855469 28.65625 L 47.34375 19.90625 L 43.855469 15.785156 L 34.617188 15.785156 L 33.789062 11.664062 Z M 30.199219 11.664062 "/>
<path style=" stroke:none;fill-rule:nonzero;fill:rgb(0%,0%,0%);fill-opacity:1;" d="M 67.175781 16.890625 L 67.175781 15.382812 L 58.304688 15.382812 L 58.304688 20.710938 L 56.011719 23.023438 L 46.746094 23.023438 L 46.746094 33.882812 L 60.300781 33.882812 L 67.175781 26.644531 L 67.175781 17.996094 L 62.890625 17.996094 L 62.890625 21.816406 L 57.609375 27.246094 L 47.742188 27.246094 L 48.636719 26.34375 L 57.011719 26.34375 L 61.894531 21.316406 L 61.894531 16.890625 Z M 67.175781 16.890625 "/>
<path style=" stroke:none;fill-rule:nonzero;fill:rgb(0%,0%,0%);fill-opacity:1;" d="M 46.542969 12.367188 L 46.542969 4.121094 L 61.195312 4.121094 L 61.195312 6.636719 L 48.636719 6.636719 L 47.640625 7.84375 L 60.796875 7.84375 L 56.3125 12.367188 Z M 46.542969 12.367188 "/>
<path style=" stroke:none;fill-rule:nonzero;fill:rgb(0%,0%,0%);fill-opacity:1;" d="M 64.683594 4.121094 L 64.683594 12.667969 L 79.035156 12.667969 L 79.035156 19.808594 L 76.046875 22.925781 L 68.171875 22.925781 L 68.171875 27.148438 L 76.34375 27.148438 L 81.328125 22.019531 L 81.328125 7.742188 L 65.382812 7.742188 L 66.578125 6.535156 L 82.425781 6.535156 L 82.425781 22.621094 L 76.644531 28.453125 L 68.171875 28.453125 L 68.171875 33.78125 L 79.933594 33.78125 L 87.410156 26.644531 L 87.410156 4.121094 Z M 64.683594 4.121094 "/>
<path style="fill-rule:nonzero;fill:rgb(100%,100%,0.392157%);fill-opacity:1;stroke-width:2;stroke-linecap:butt;stroke-linejoin:miter;stroke:rgb(0%,0%,0%);stroke-opacity:1;stroke-miterlimit:4;" d="M 13.011979 113.989865 L 13.011979 36.986486 L 141.995182 36.986486 L 141.995182 62.006757 L 54.007552 62.006757 L 44.013411 74.011824 L 132.980859 74.011824 L 93.004297 113.989865 Z M 13.011979 113.989865 " transform="matrix(0.0996678,0,0,0.100543,0,0)"/>
<path style="fill-rule:nonzero;fill:rgb(100%,100%,0.392157%);fill-opacity:1;stroke-width:2;stroke-linecap:butt;stroke-linejoin:miter;stroke:rgb(0%,0%,0%);stroke-opacity:1;stroke-miterlimit:4;" d="M 13.011979 200.006757 L 13.011979 123.003378 L 141.995182 123.003378 L 141.995182 142.001689 L 58.005208 142.001689 L 46.992057 154.006757 L 139.016536 154.006757 L 93.004297 200.006757 Z M 13.011979 200.006757 " transform="matrix(0.0996678,0,0,0.100543,0,0)"/>
<path style="fill-rule:nonzero;fill:rgb(100%,100%,0.392157%);fill-opacity:1;stroke-width:2;stroke-linecap:butt;stroke-linejoin:miter;stroke:rgb(0%,0%,0%);stroke-opacity:1;stroke-miterlimit:4;" d="M 157.985807 101.013514 L 157.985807 36.986486 L 234.999479 36.986486 L 234.999479 62.006757 L 174.015625 62.006757 L 163.982292 74.011824 L 234.999479 74.011824 L 234.999479 101.013514 Z M 157.985807 101.013514 " transform="matrix(0.0996678,0,0,0.100543,0,0)"/>
<path style="fill-rule:nonzero;fill:rgb(100%,100%,0.392157%);fill-opacity:1;stroke-width:2;stroke-linecap:butt;stroke-linejoin:miter;stroke:rgb(0%,0%,0%);stroke-opacity:1;stroke-miterlimit:4;" d="M 246.01263 101.013514 L 246.01263 36.986486 L 306.016667 36.986486 L 306.016667 62.006757 L 262.003255 62.006757 L 252.009115 74.011824 L 304.017839 74.011824 L 277.99388 101.013514 Z M 246.01263 101.013514 " transform="matrix(0.0996678,0,0,0.100543,0,0)"/>
<path style="fill-rule:nonzero;fill:rgb(100%,100%,0.392157%);fill-opacity:1;stroke-width:2;stroke-linecap:butt;stroke-linejoin:miter;stroke:rgb(0%,0%,0%);stroke-opacity:1;stroke-miterlimit:4;" d="M 258.985417 133.998311 L 258.985417 112.008446 L 168.998958 112.008446 L 168.998958 201.988176 L 145.992839 224.988176 L 13.011979 224.988176 L 13.011979 332.994932 L 190.986068 332.994932 L 258.985417 262.984797 L 258.985417 144.993243 L 203.018229 144.993243 L 203.018229 220.986486 L 157.00599 266.986486 L 23.00612 266.986486 L 31.98125 258.011824 L 151.009505 258.011824 L 190.986068 216.013514 L 190.986068 133.998311 Z M 258.985417 133.998311 " transform="matrix(0.0996678,0,0,0.100543,0,0)"/>
<path style="fill-rule:nonzero;fill:rgb(100%,100%,0.392157%);fill-opacity:1;stroke-width:2;stroke-linecap:butt;stroke-linejoin:miter;stroke:rgb(0%,0%,0%);stroke-opacity:1;stroke-miterlimit:4;" d="M 266.980729 112.008446 L 276.151823 156.998311 L 266.980729 156.998311 L 266.980729 197.986486 L 284.49987 197.986486 L 286.96901 209.991554 L 266.980729 209.991554 L 266.980729 235.011824 L 292.02487 235.011824 L 312.013151 332.994932 L 339.996745 332.994932 L 295.003516 112.008446 Z M 266.980729 112.008446 " transform="matrix(0.0996678,0,0,0.100543,0,0)"/>
<path style="fill-rule:nonzero;fill:rgb(100%,100%,0.392157%);fill-opacity:1;stroke-width:2;stroke-linecap:butt;stroke-linejoin:miter;stroke:rgb(0%,0%,0%);stroke-opacity:1;stroke-miterlimit:4;" d="M 301 112.008446 L 345.993229 332.994932 L 382.011328 332.994932 L 361.435156 231.981419 L 380.992318 231.981419 L 390.986458 205.018581 L 355.948177 205.018581 L 353.675 193.984797 L 421.008073 193.984797 L 413.992578 205.018581 L 400.980599 205.018581 L 374.016016 281.011824 L 438.017708 281.011824 L 473.016797 193.984797 L 438.017708 152.996622 L 345.326953 152.996622 L 337.018099 112.008446 Z M 301 112.008446 " transform="matrix(0.0996678,0,0,0.100543,0,0)"/>
<path style="fill-rule:nonzero;fill:rgb(100%,100%,0.392157%);fill-opacity:1;stroke-width:2;stroke-linecap:butt;stroke-linejoin:miter;stroke:rgb(0%,0%,0%);stroke-opacity:1;stroke-miterlimit:4;" d="M 671.998177 163.991554 L 671.998177 148.994932 L 582.991536 148.994932 L 582.991536 201.988176 L 559.985417 224.988176 L 466.98112 224.988176 L 466.98112 332.994932 L 603.01901 332.994932 L 671.998177 261.003378 L 671.998177 174.986486 L 629.003776 174.986486 L 629.003776 212.983108 L 576.015234 266.986486 L 477.014453 266.986486 L 485.989583 258.011824 L 570.01875 258.011824 L 619.009635 208.010135 L 619.009635 163.991554 Z M 671.998177 163.991554 " transform="matrix(0.0996678,0,0,0.100543,0,0)"/>
<path style="fill-rule:nonzero;fill:rgb(100%,100%,0.392157%);fill-opacity:1;stroke-width:2;stroke-linecap:butt;stroke-linejoin:miter;stroke:rgb(0%,0%,0%);stroke-opacity:1;stroke-miterlimit:4;" d="M 464.982292 119.001689 L 464.982292 36.986486 L 611.994141 36.986486 L 611.994141 62.006757 L 485.989583 62.006757 L 475.995443 74.011824 L 607.996484 74.011824 L 563.003255 119.001689 Z M 464.982292 119.001689 " transform="matrix(0.0996678,0,0,0.100543,0,0)"/>
<path style="fill-rule:nonzero;fill:rgb(100%,100%,0.392157%);fill-opacity:1;stroke-width:2;stroke-linecap:butt;stroke-linejoin:miter;stroke:rgb(0%,0%,0%);stroke-opacity:1;stroke-miterlimit:4;" d="M 646.993229 36.986486 L 646.993229 121.993243 L 790.98724 121.993243 L 790.98724 193.013514 L 761.004818 224.016892 L 681.992318 224.016892 L 681.992318 266.015203 L 763.983464 266.015203 L 813.993359 215.003378 L 813.993359 73.001689 L 654.008724 73.001689 L 666.001693 60.996622 L 825.00651 60.996622 L 825.00651 220.986486 L 767.001302 278.991554 L 681.992318 278.991554 L 681.992318 331.984797 L 800.001562 331.984797 L 875.016406 261.003378 L 875.016406 36.986486 Z M 646.993229 36.986486 " transform="matrix(0.0996678,0,0,0.100543,0,0)"/>
<path style="fill-rule:nonzero;fill:rgb(99.607843%,64.313728%,16.078432%);fill-opacity:1;stroke-width:2;stroke-linecap:butt;stroke-linejoin:miter;stroke:rgb(0%,0%,0%);stroke-opacity:1;stroke-miterlimit:4;" d="M 778.994271 92 L 778.994271 37.996622 L 811.014714 5.011824 L 895.004688 5.011824 L 895.004688 63.988176 L 868.000911 92 Z M 778.994271 92 " transform="matrix(0.0996678,0,0,0.100543,0,0)"/>
<path style=" stroke:none;fill-rule:nonzero;fill:rgb(0%,0%,0%);fill-opacity:1;" d="M 81.230469 1.710938 L 78.835938 4.121094 L 78.835938 8.546875 L 86.410156 8.546875 L 88.703125 6.132812 L 88.703125 1.710938 Z M 82.722656 4.023438 L 85.613281 4.03125 L 85.613281 5.429688 L 84.816406 6.132812 L 81.925781 6.132812 L 81.925781 4.824219 Z M 82.722656 4.023438 "/>
<path style="fill-rule:nonzero;fill:rgb(100%,100%,0.392157%);fill-opacity:1;stroke-width:2;stroke-linecap:butt;stroke-linejoin:miter;stroke:rgb(0%,0%,0%);stroke-opacity:1;stroke-miterlimit:4;" d="M 813.013542 13.015203 L 788.988411 36.986486 L 788.988411 81.005068 L 864.983073 81.005068 L 887.989193 56.994932 L 887.989193 13.015203 Z M 827.985156 36.015203 L 856.98776 36.092905 L 856.98776 50.001689 L 848.992448 56.994932 L 819.989844 56.994932 L 819.989844 44.018581 Z M 827.985156 36.015203 " transform="matrix(0.0996678,0,0,0.100543,0,0)"/>
<path style=" stroke:none;fill-rule:nonzero;fill:rgb(0%,0%,0%);fill-opacity:1;" d="M 25.414062 10.605469 L 25.414062 11.613281 L 26.0625 14.730469 L 40.464844 14.730469 L 40.464844 13.171875 L 41.410156 11.3125 L 41.410156 10.605469 Z M 25.414062 10.605469 "/>
<path style=" stroke:none;fill-rule:nonzero;fill:rgb(0%,0%,0%);fill-opacity:1;" d="M 40.863281 12.265625 L 42.160156 12.265625 L 42.160156 10.605469 C 42.160156 10.605469 48.378906 10.605469 51.429688 10.605469 C 52.207031 10.605469 52.523438 11.183594 52.523438 11.410156 L 52.523438 12.820312 C 52.523438 13.058594 52.199219 13.625 51.429688 13.625 L 51.179688 13.625 L 51.179688 14.730469 L 41.960938 14.730469 C 41.183594 14.71875 40.863281 14.34375 40.863281 13.925781 Z M 40.863281 12.265625 "/>
<path style=" stroke:none;fill-rule:nonzero;fill:rgb(41.176471%,89.803922%,1.176471%);fill-opacity:1;" d="M 25.8125 10.859375 L 26.210938 13.675781 L 27.507812 13.675781 L 27.808594 11.664062 L 28.105469 13.675781 L 29.402344 13.675781 L 29.800781 10.859375 L 28.855469 10.859375 L 28.65625 12.96875 L 28.457031 10.859375 L 27.160156 10.859375 L 26.960938 12.96875 L 26.761719 10.859375 Z M 25.8125 10.859375 "/>
<path style=" stroke:none;fill-rule:nonzero;fill:rgb(41.176471%,89.803922%,1.176471%);fill-opacity:1;" d="M 31.792969 10.859375 L 31.792969 11.410156 L 30.898438 11.410156 L 30.898438 12.015625 L 31.644531 12.015625 L 31.644531 12.519531 L 30.898438 12.519531 L 30.898438 13.121094 L 31.792969 13.132812 L 31.792969 13.675781 L 29.949219 13.675781 L 29.949219 10.859375 Z M 31.792969 10.859375 "/>
<path style=" stroke:none;fill-rule:nonzero;fill:rgb(41.176471%,89.803922%,1.176471%);fill-opacity:1;" d="M 33.9375 10.859375 L 33.9375 11.410156 L 33.039062 11.410156 L 33.039062 12.015625 L 33.789062 12.015625 L 33.789062 12.519531 L 33.039062 12.519531 L 33.039062 13.121094 L 33.9375 13.132812 L 33.9375 13.675781 L 32.09375 13.675781 L 32.09375 10.859375 Z M 33.9375 10.859375 "/>
<path style=" stroke:none;fill-rule:nonzero;fill:rgb(41.176471%,89.803922%,1.176471%);fill-opacity:1;" d="M 34.234375 10.859375 L 34.234375 13.675781 L 35.183594 13.675781 L 35.183594 12.523438 L 35.679688 13.675781 L 36.726562 13.675781 L 35.980469 12.015625 L 36.679688 10.859375 L 35.632812 10.859375 L 35.183594 11.695312 L 35.183594 10.859375 Z M 34.234375 10.859375 "/>
<path style=" stroke:none;fill-rule:nonzero;fill:rgb(41.176471%,89.803922%,1.176471%);fill-opacity:1;" d="M 37.824219 10.859375 L 37.824219 13.121094 L 38.722656 13.132812 L 38.722656 13.675781 L 36.878906 13.675781 L 36.878906 10.859375 Z M 37.824219 10.859375 "/>
<path style=" stroke:none;fill-rule:nonzero;fill:rgb(41.176471%,89.803922%,1.176471%);fill-opacity:1;" d="M 38.371094 10.859375 L 39.320312 10.859375 L 39.617188 11.847656 L 39.917969 10.859375 L 40.863281 10.859375 L 40.117188 12.566406 L 40.117188 13.675781 L 39.121094 13.675781 L 39.121094 12.566406 Z M 38.371094 10.859375 "/>
<path style=" stroke:none;fill-rule:nonzero;fill:rgb(41.176471%,89.803922%,1.176471%);fill-opacity:1;" d="M 41.210938 12.519531 L 42.210938 12.519531 L 42.199219 13.019531 C 42.195312 13.285156 42.507812 13.273438 42.507812 13.019531 L 42.507812 10.859375 L 43.503906 10.859375 L 43.503906 13.019531 C 43.503906 13.894531 41.210938 13.898438 41.210938 13.019531 Z M 41.210938 12.519531 "/>
<path style=" stroke:none;fill-rule:nonzero;fill:rgb(41.176471%,89.803922%,1.176471%);fill-opacity:1;" d="M 43.703125 10.859375 L 44.699219 10.859375 L 44.691406 13.019531 C 44.691406 13.285156 45 13.273438 45 13.019531 L 45 10.859375 L 45.996094 10.859375 L 45.996094 13.019531 C 45.996094 13.894531 43.703125 13.898438 43.703125 13.019531 Z M 43.703125 10.859375 "/>
<path style=" stroke:none;fill-rule:nonzero;fill:rgb(41.176471%,89.803922%,1.176471%);fill-opacity:1;" d="M 46.246094 13.675781 L 46.246094 10.859375 L 47.640625 10.859375 L 47.941406 12.265625 L 48.238281 10.859375 L 49.632812 10.859375 L 49.632812 13.675781 L 48.789062 13.675781 L 48.789062 11.5625 L 48.289062 13.675781 L 47.589844 13.675781 L 47.09375 11.5625 L 47.09375 13.675781 Z M 46.246094 13.675781 "/>
<path style=" stroke:none;fill-rule:nonzero;fill:rgb(41.176471%,89.803922%,1.176471%);fill-opacity:1;" d="M 49.882812 10.859375 L 49.882812 13.675781 L 50.832031 13.675781 L 50.832031 12.566406 L 51.429688 12.566406 C 51.769531 12.566406 52.175781 12.25 52.175781 11.964844 L 52.175781 11.460938 C 52.175781 11.199219 51.835938 10.859375 51.429688 10.859375 Z M 50.832031 11.3125 C 51.332031 11.3125 51.328125 12.109375 50.832031 12.117188 Z M 50.832031 11.3125 "/>
<path style=" stroke:none;fill-rule:nonzero;fill:rgb(0%,0%,0%);fill-opacity:1;" d="M 34.035156 2.011719 L 34.035156 2.863281 L 32.480469 2.277344 C 32.578125 4.078125 32.023438 5.226562 30.976562 5.871094 L 32.789062 7.292969 C 32.410156 7.371094 32.050781 7.339844 31.6875 7.324219 L 32.679688 10.496094 C 34.855469 10.542969 36.621094 9.519531 38.132812 8.042969 L 38.132812 8.929688 L 41.011719 8.929688 L 41.011719 10.324219 L 43.933594 10.324219 L 43.933594 8.929688 L 45.855469 8.929688 L 45.855469 5.949219 L 45.546875 5.949219 L 45.546875 5.296875 L 45.667969 5.296875 L 45.667969 2.453125 L 42.59375 2.453125 L 42.753906 2.011719 L 39.472656 2.011719 C 39.34375 2.578125 39.074219 3.070312 38.703125 3.511719 C 38.433594 3.105469 38.292969 2.648438 38.1875 2.175781 L 36.925781 2.707031 L 36.925781 2.011719 Z M 34.035156 2.011719 "/>
<path style=" stroke:none;fill-rule:nonzero;fill:rgb(100%,100%,100%);fill-opacity:1;" d="M 34.433594 2.414062 L 34.433594 3.441406 L 32.894531 2.863281 C 32.914062 3.863281 32.390625 5.429688 31.664062 5.902344 L 33.554688 7.378906 L 33.835938 6.933594 L 33.835938 7.308594 L 34.386719 7.308594 C 33.777344 7.558594 33.054688 7.71875 32.230469 7.722656 L 32.96875 10.082031 C 35.585938 9.996094 37.441406 8.539062 38.53125 6.886719 L 38.53125 8.527344 L 41.410156 8.527344 L 41.410156 9.921875 L 43.535156 9.921875 L 43.535156 8.527344 L 45.457031 8.527344 L 45.457031 6.351562 L 45.148438 6.351562 L 45.148438 4.894531 L 45.269531 4.894531 L 45.269531 2.855469 L 41.972656 2.855469 C 42.050781 2.726562 42.125 2.585938 42.1875 2.414062 L 39.769531 2.414062 C 39.578125 3.082031 39.191406 3.667969 38.605469 4.160156 C 38.332031 3.726562 38.097656 3.253906 37.9375 2.71875 L 36.527344 3.3125 L 36.527344 2.414062 Z M 39.144531 5.773438 L 39.417969 6.136719 L 39.417969 6.351562 L 38.851562 6.351562 C 38.957031 6.160156 39.058594 5.964844 39.144531 5.773438 Z M 39.144531 5.773438 "/>
<path style=" stroke:none;fill-rule:nonzero;fill:rgb(0%,0%,0%);fill-opacity:1;" d="M 40.214844 3.054688 C 40.019531 3.625 39.484375 4.289062 38.949219 4.714844 L 39.675781 5.671875 C 39.789062 5.582031 39.898438 5.488281 40.007812 5.382812 L 40.007812 6.996094 L 39.117188 6.996094 L 39.117188 8.164062 L 42 8.164062 L 42 9.558594 L 43.128906 9.558594 L 43.128906 8.164062 L 45.050781 8.164062 L 45.050781 6.996094 L 43.128906 6.996094 L 43.128906 6.164062 L 44.742188 6.164062 L 44.742188 5.117188 L 43.128906 5.117188 L 43.128906 4.535156 L 44.859375 4.535156 L 44.859375 3.5 L 41.222656 3.5 C 41.273438 3.355469 41.3125 3.207031 41.34375 3.054688 Z M 40.722656 4.535156 L 42 4.535156 L 42 5.117188 L 40.269531 5.117188 C 40.429688 4.9375 40.585938 4.742188 40.722656 4.535156 Z M 41.011719 6.164062 L 42 6.164062 L 42 6.996094 L 41.011719 6.996094 Z M 41.011719 6.164062 "/>
<path style=" stroke:none;fill-rule:nonzero;fill:rgb(0%,0%,0%);fill-opacity:1;" d="M 37.625 3.578125 C 37.863281 4.292969 38.222656 5.050781 38.761719 5.652344 L 37.972656 6.464844 C 37.273438 5.785156 36.894531 5.007812 36.636719 3.992188 Z M 37.625 3.578125 "/>
<path style=" stroke:none;fill-rule:nonzero;fill:rgb(0%,0%,0%);fill-opacity:1;" d="M 32.988281 8.324219 C 34.492188 8.230469 36.046875 7.519531 36.917969 6.011719 L 37.875 6.796875 C 36.789062 8.550781 35.621094 9.214844 33.390625 9.570312 Z M 32.988281 8.324219 "/>
<path style=" stroke:none;fill-rule:nonzero;fill:rgb(0%,0%,0%);fill-opacity:1;" d="M 32.460938 5.960938 L 33.519531 6.785156 C 33.984375 6.054688 34.46875 4.960938 34.515625 4.113281 L 33.4375 3.710938 C 33.394531 4.453125 32.894531 5.425781 32.460938 5.960938 Z M 32.460938 5.960938 "/>
<path style=" stroke:none;fill-rule:nonzero;fill:rgb(0%,0%,0%);fill-opacity:1;" d="M 36.121094 3.054688 L 36.121094 6.34375 C 36.121094 6.628906 35.769531 6.949219 35.523438 6.949219 L 34.425781 6.949219 L 34.425781 5.820312 L 34.773438 5.820312 C 34.980469 5.820312 35.023438 5.769531 35.023438 5.570312 L 35.023438 3.054688 Z M 36.121094 3.054688 "/>
<path style=" stroke:none;fill-rule:nonzero;fill:rgb(98.039216%,38.431373%,18.82353%);fill-opacity:1;" d="M 40.125 2.914062 C 39.929688 3.484375 39.394531 4.148438 38.859375 4.574219 L 39.585938 5.53125 C 39.699219 5.441406 39.808594 5.347656 39.917969 5.242188 L 39.917969 6.855469 L 39.027344 6.855469 L 39.027344 8.023438 L 41.910156 8.023438 L 41.910156 9.417969 L 43.039062 9.417969 L 43.039062 8.023438 L 44.960938 8.023438 L 44.960938 6.855469 L 43.039062 6.855469 L 43.039062 6.023438 L 44.652344 6.023438 L 44.652344 4.976562 L 43.039062 4.976562 L 43.039062 4.390625 L 44.769531 4.390625 L 44.769531 3.359375 L 41.132812 3.359375 C 41.183594 3.214844 41.222656 3.066406 41.253906 2.914062 Z M 40.632812 4.390625 L 41.910156 4.390625 L 41.910156 4.976562 L 40.179688 4.976562 C 40.339844 4.796875 40.496094 4.601562 40.632812 4.390625 Z M 40.921875 6.023438 L 41.910156 6.023438 L 41.910156 6.855469 L 40.921875 6.855469 Z M 40.921875 6.023438 "/>
<path style=" stroke:none;fill-rule:nonzero;fill:rgb(98.039216%,38.431373%,18.82353%);fill-opacity:1;" d="M 37.535156 3.4375 C 37.773438 4.152344 38.132812 4.910156 38.671875 5.511719 L 37.882812 6.324219 C 37.183594 5.644531 36.804688 4.863281 36.546875 3.851562 Z M 37.535156 3.4375 "/>
<path style=" stroke:none;fill-rule:nonzero;fill:rgb(98.039216%,38.431373%,18.82353%);fill-opacity:1;" d="M 32.898438 8.183594 C 34.402344 8.089844 35.957031 7.375 36.828125 5.871094 L 37.785156 6.65625 C 36.699219 8.410156 35.53125 9.074219 33.300781 9.429688 Z M 32.898438 8.183594 "/>
<path style=" stroke:none;fill-rule:nonzero;fill:rgb(98.039216%,38.431373%,18.82353%);fill-opacity:1;" d="M 32.371094 5.820312 L 33.429688 6.644531 C 33.894531 5.914062 34.378906 4.820312 34.425781 3.972656 L 33.347656 3.570312 C 33.304688 4.3125 32.804688 5.285156 32.371094 5.820312 Z M 32.371094 5.820312 "/>
<path style=" stroke:none;fill-rule:nonzero;fill:rgb(98.039216%,38.431373%,18.82353%);fill-opacity:1;" d="M 36.03125 2.914062 L 36.03125 6.203125 C 36.03125 6.488281 35.683594 6.808594 35.433594 6.808594 L 34.335938 6.808594 L 34.335938 5.679688 L 34.683594 5.679688 C 34.890625 5.679688 34.933594 5.628906 34.933594 5.429688 L 34.933594 2.914062 Z M 36.03125 2.914062 "/>
<path style="fill-rule:nonzero;fill:rgb(98.039216%,38.431373%,18.82353%);fill-opacity:1;stroke-width:1;stroke-linecap:butt;stroke-linejoin:miter;stroke:rgb(100%,100%,0.392157%);stroke-opacity:1;stroke-miterlimit:4;" d="M 36.018099 59.481419 L 38.996745 66.008446 L 43.503906 66.008446 L 40.486068 59.481419 Z M 44.483724 59.481419 L 44.483724 80.810811 C 44.483724 81.587838 43.974219 81.820946 42.994401 82.054054 L 44.993229 83.802365 C 46.443359 83.763514 48.990885 82.636824 48.990885 81.005068 L 48.990885 62.511824 L 61.493359 62.511824 L 61.493359 79.994932 C 61.493359 81.277027 61.297396 81.510135 60.827083 81.510135 L 59.494531 81.510135 L 59.494531 83.996622 L 62.982682 83.996622 C 65.059896 83.996622 66.000521 82.947635 66.000521 81.005068 L 66.000521 59.481419 Z M 71.997005 59.481419 L 71.997005 63.988176 L 77.013672 63.988176 L 77.013672 71.486486 L 71.997005 71.486486 L 71.997005 75.993243 L 77.013672 75.993243 L 77.013672 89.008446 L 81.481641 89.008446 L 81.481641 75.993243 L 86.498307 75.993243 L 86.498307 71.486486 L 81.481641 71.486486 L 81.481641 63.988176 L 86.498307 63.988176 L 86.498307 59.481419 Z M 89.516146 59.481419 L 89.516146 82.481419 L 93.984115 82.481419 L 93.984115 59.481419 Z M 96.492448 59.481419 L 96.492448 83.491554 C 96.492448 84.190878 96.335677 84.501689 95.51263 84.501689 L 91.005469 84.501689 L 91.005469 89.008446 L 97.511458 89.008446 C 99.471094 89.008446 100.999609 87.415541 100.999609 85.511824 L 100.999609 59.481419 Z M 54.007552 62.822635 L 54.007552 64.998311 L 50.009896 64.998311 L 50.009896 67.484797 L 54.007552 67.484797 L 54.007552 70.010135 L 50.009896 70.010135 L 50.009896 72.496622 L 60.513542 72.496622 L 60.513542 70.010135 L 56.515885 70.010135 L 56.515885 67.484797 L 60.513542 67.484797 L 60.513542 64.998311 L 56.515885 64.998311 L 56.515885 62.822635 Z M 36.018099 67.989865 L 36.018099 72.496622 L 38.016927 72.496622 L 38.016927 84.501689 L 36.018099 84.501689 L 36.018099 89.008446 L 39.702214 89.008446 C 40.917187 89.008446 42.014583 88.037162 42.014583 86.988176 C 42.014583 87.998311 42.994401 88.969595 44.326953 89.008446 L 66.510026 89.008446 L 66.510026 84.501689 L 44.797266 84.501689 C 43.621484 84.501689 42.484896 84.540541 42.484896 82.831081 L 42.484896 67.989865 Z M 50.009896 73.506757 L 50.009896 82.481419 L 52.518229 82.481419 L 52.518229 81.005068 L 60.513542 81.005068 L 60.513542 73.506757 Z M 52.518229 75.993243 L 58.005208 75.993243 L 58.005208 78.518581 L 52.518229 78.518581 Z M 52.518229 75.993243 " transform="matrix(0.0996678,0,0,0.100543,0,0)"/>
</g>
</svg>
